<svg xmlns="http://www.w3.org/2000/svg" viewBox="0 0 892.13 200.39"><defs><style>.cls-1{fill:none;stroke:#000;stroke-miterlimit:10;stroke-width:12.74px;}</style></defs><title>Insta-logo</title><g id="Layer_2" data-name="Layer 2"><g id="Layer_2-2" data-name="Layer 2"><path d="M243.42,7c-14,5.87-29.39,22.41-34.25,43.2C203,76.56,228.63,87.7,230.73,84.05c2.48-4.29-4.59-5.74-6-19.4-1.88-17.64,6.32-37.36,16.65-46,1.92-1.6,1.82.63,1.82,4.77,0,7.4-.41,73.82-.41,87.68,0,18.76-.77,24.68-2.16,30.53s-3.68,9.94-2,11.48c1.92,1.73,10.11-2.38,14.85-9,5.69-7.93,7.68-17.47,8-27.82.43-12.48.41-32.29.43-43.59,0-10.36.17-40.69-.18-58.93C261.68,9.28,249.27,4.59,243.42,7Zm645.64,98.54c-2,0-2.95,2.09-3.72,5.61-2.66,12.26-5.46,15-9.06,15-4,0-7.65-6.07-8.58-18.21-.73-9.55-.61-27.13.33-44.61.19-3.59-.8-7.15-10.44-10.65-4.15-1.51-10.17-3.72-13.18,3.52C835.94,76.73,832.62,93,831.84,99.58c0,.34-.46.41-.54-.39a337.12,337.12,0,0,1-1.74-35.08c0-3.94-.87-7.29-5.21-10-2.82-1.78-11.39-4.93-14.47-1.19-2.67,3.07-5.77,11.32-9,21.09-2.62,8-4.44,13.32-4.44,13.32s0-21.44.07-29.57a4.15,4.15,0,0,0-2.73-4.27c-2.85-.83-8.48-2.22-10.87-2.22-2.94,0-3.67,1.65-3.67,4,0,.31-.46,28.22-.46,47.74v2.76c-1.63,9-6.91,21.15-12.66,21.15s-8.47-5.1-8.47-28.36c0-13.58.4-19.48.6-29.29.12-5.66.35-10,.33-11,0-3-5.27-4.54-7.7-5.11a23.18,23.18,0,0,0-6.22-.69c-2.35.13-4,1.67-4,3.79,0,1.13,0,3.29,0,3.29-3-4.75-7.89-8-11.12-9-8.71-2.59-17.8-.29-24.65,9.3-5.45,7.62-8.74,16.25-10,28.66a85.23,85.23,0,0,0,1,26c-2,8.77-5.79,12.37-9.92,12.37-6,0-10.33-9.78-9.83-26.69.34-11.12,2.56-18.92,5-30.22,1-4.81.2-7.33-1.92-9.74-1.93-2.22-6.06-3.35-12-2-4.23,1-10.28,2.06-15.81,2.88a33.26,33.26,0,0,0,.61-3.68c1.44-12.32-11.95-11.32-16.22-7.38-2.55,2.35-4.28,5.12-4.94,10.1a11.92,11.92,0,0,0,5.4,11.63c-2.11,9.68-7.3,22.32-12.65,31.47a135.81,135.81,0,0,1-7.89,12.38c0-1.43,0-2.87,0-4.3-.07-20.35.2-36.37.32-42.14s.35-9.89.33-10.87c0-2.21-1.32-3.05-4-4.1a28.45,28.45,0,0,0-8.09-1.81c-3.68-.28-5.89,1.66-5.83,4,0,.43,0,3.11,0,3.11-3-4.75-7.89-8.06-11.12-9-8.71-2.58-17.8-.29-24.65,9.3-5.45,7.62-9,18.32-10,28.57-.94,9.54-.77,17.66.52,24.49-1.39,6.85-5.37,14-9.87,14-5.76,0-9-5.09-9-28.36,0-13.57.41-19.48.6-29.29.12-5.66.35-10,.33-11,0-3-5.27-4.55-7.7-5.11a22.07,22.07,0,0,0-6.42-.68,4.12,4.12,0,0,0-3.79,3.64v3.43c-3-4.75-7.89-8.06-11.12-9-8.71-2.58-17.75-.25-24.65,9.3C477,66.1,473.39,73,471.51,88.3a96.4,96.4,0,0,0-.75,12.42c-1.8,11-9.73,23.64-16.22,23.64-3.79,0-7.41-7.36-7.41-23,0-20.91,1.3-50.67,1.52-53.54l9.78-.16c4.09,0,7.79,0,13.24-.23,2.73-.14,5.36-9.94,2.54-11.15-1.27-.55-10.31-1-13.88-1.11-3-.07-11.4-.69-11.4-.69s.75-19.76.93-21.84c.15-1.74-2.1-2.64-3.39-3.18a46.63,46.63,0,0,0-9.28-2.65c-4.59-1-6.68,0-7.09,3.86-.61,5.89-.93,23.14-.93,23.14-3.37,0-14.9-.66-18.27-.66-3.14,0-6.52,13.49-2.19,13.65,5,.2,13.68.36,19.45.54,0,0-.26,30.25-.26,39.59,0,1,0,2,0,2.88a45.65,45.65,0,0,1-14.35,25.46c2.4-10.93-2.5-19.15-11.32-26.1-3.26-2.56-9.68-7.41-16.86-12.72,0,0,4.16-4.1,7.85-12.36,2.62-5.84,2.73-12.53-3.69-14-10.6-2.44-19.34,5.35-22,13.66-2,6.44-.94,11.22,3,16.18.29.37.61.74.93,1.11-2.39,4.61-5.68,10.82-8.47,15.64-7.73,13.37-13.56,24-18,24-3.53,0-3.48-10.74-3.48-20.79,0-8.67.64-21.7,1.15-35.19.17-4.47-2.06-7-5.8-9.31-2.27-1.4-7.12-4.15-9.93-4.15-4.2,0-16.33.57-27.79,33.73-1.45,4.17-4.29,11.79-4.29,11.79l.25-39.87a2.79,2.79,0,0,0-1.64-2.46,28.28,28.28,0,0,0-11.68-3.19c-2.18,0-3.27,1-3.27,3l-.4,62.38c0,4.74.12,10.27.59,12.68a13.2,13.2,0,0,0,2.16,5.57,6.16,6.16,0,0,0,3.8,2.43c1.66.34,10.75,1.51,11.22-2,.57-4.16.59-8.67,5.36-25.46C308.77,83.66,318.46,70.9,323,66.37c.8-.79,1.71-.84,1.66.46-.19,5.73-.87,20-1.34,32.22-1.23,32.57,4.7,38.61,13.16,38.61,6.48,0,15.61-6.44,25.4-22.73,6.1-10.15,12-20.11,16.28-27.28,3,2.74,6.3,5.7,9.63,8.86,7.73,7.33,10.27,14.31,8.58,20.92-1.28,5.06-6.14,10.27-14.77,5.21-2.52-1.48-3.59-2.62-6.12-4.29-1.36-.89-3.43-1.16-4.68-.22a16.65,16.65,0,0,0-6.14,9.37c-1,3.74,2.72,5.71,6.59,7.44,3.34,1.48,10.52,2.83,15.09,3,17.83.6,32.12-8.6,42.06-32.35,1.78,20.51,9.35,32.11,22.51,32.11,8.8,0,17.62-11.37,21.48-22.56A39.88,39.88,0,0,0,477.26,127c10.15,16.07,29.82,12.61,39.7-1,3-4.22,3.52-5.74,3.52-5.74,1.44,12.89,11.82,17.39,17.76,17.39,6.65,0,13.52-3.15,18.33-14a33.24,33.24,0,0,0,1.85,3.36c10.15,16.07,29.82,12.61,39.7-1,.47-.64.87-1.22,1.22-1.75l.29,8.47L590.54,141c-15.25,14-26.84,24.58-27.69,36.93-1.08,15.74,11.67,21.59,21.34,22.35,10.25.82,19-4.85,24.44-12.78,4.75-7,7.85-22,7.63-36.84-.09-5.94-.24-13.49-.36-21.59a173,173,0,0,0,16.93-23.27c6.06-10,12.54-23.48,15.86-34,0,0,5.64,0,11.65-.34,1.93-.13,2.48.26,2.12,1.67-.43,1.71-7.6,29.36-1.05,47.78,4.48,12.61,14.57,16.66,20.55,16.66,7,0,13.71-5.29,17.3-13.15.44.88.89,1.73,1.38,2.51,10.14,16.07,29.75,12.59,39.7-1a41.81,41.81,0,0,0,3.52-5.73c2.13,13.33,12.5,17.45,18.44,17.45,6.19,0,12.06-2.54,16.82-13.81.2,5,.51,9,1,10.3.3.78,2.06,1.76,3.34,2.24,5.66,2.1,11.43,1.11,13.56.67,1.48-.3,2.64-1.48,2.8-4.55.41-8,.16-21.56,2.59-31.61,4.1-16.86,7.92-23.41,9.73-26.64,1-1.82,2.16-2.12,2.2-.2.08,3.89.28,15.3,1.87,30.63,1.16,11.27,2.72,17.93,3.91,20,3.42,6,7.63,6.32,11.06,6.32,2.19,0,6.75-.6,6.35-4.44-.2-1.87.15-13.43,4.18-30a145.89,145.89,0,0,1,8.62-24.23c.58-1.32.86-.28.85-.08-.34,7.47-1.09,31.91,2,45.28,4.12,18.1,16.06,20.13,20.22,20.13,8.88,0,16.14-6.76,18.58-24.53.6-4.28-.27-7.58-2.89-7.58Zm-371.94-11c-.5,9.41-2.34,17.27-5.28,23-5.33,10.34-15.87,13.61-20.52-1.32-3.35-10.77-2.21-25.46-.82-33.39,2.07-11.77,7.25-20.12,15.34-19.33C514.15,64.35,518.18,75,517.12,94.59Zm81.16.14c-.47,8.88-2.77,17.8-5.28,22.84-5.19,10.41-16,13.66-20.52-1.32-3.07-10.24-2.34-23.49-.82-31.83,2-10.84,6.76-20.89,15.34-20.89C595.35,63.53,599.46,72.69,598.28,94.73Zm2.12,60.59c-.11,16.2-2.66,30.41-8.13,34.53-7.75,5.85-18.18,1.46-16-10.36,1.91-10.46,10.94-21.14,24.18-34.2C600.42,145.29,600.45,148.27,600.4,155.32Zm140.11-60.5c-.46,9.75-2.61,17.37-5.29,22.75-5.19,10.41-16,13.64-20.52-1.32-2.49-8.16-2.61-21.78-.82-33.16,1.83-11.59,6.91-20.35,15.34-19.56S741.42,75,740.51,94.82Z"/><circle class="cls-1" cx="84.61" cy="86.43" r="36.39"/><circle cx="131" cy="40.03" r="10.92"/><rect class="cls-1" x="6.37" y="6.37" width="156.48" height="156.48" rx="38.9"/></g></g></svg>
